{
  "asset" : {
    "generator" : "UE Viewer (umodel) build 1585",
    "version" : "2.0"
  },
  "scene" : 0,
  "scenes" : [
    {
      "nodes" : [ 0 ]
    }
  ],
  "nodes" : [
    {
      "name" : "LV_Navarra_Object_GardenDeco01_SM_NWCNIK",
      "mesh" : 0
    }
  ],
  "materials" : [
    {
      "name" : "LV_Navarra_Object_CityHallFurniture01A_MI_NWCNIK",
      "pbrMetallicRoughness" : {
        "baseColorFactor" : [ 0.3, 0.3, 0.3, 1.0 ],
        "metallicFactor" : 0.1,
        "roughnessFactor" : 0.5
      }
    }
  ],
  "meshes" : [
    {
      "primitives" : [
        {
          "attributes" : {
            "POSITION" : 1,
            "NORMAL" : 2,
            "TANGENT" : 3,
            "TEXCOORD_0" : 4,
            "TEXCOORD_1" : 5
          },
          "indices" : 0,
          "material" : 0
        }
      ],
      "name" : "LV_Navarra_Object_GardenDeco01_SM_NWCNIK"
    }
  ],
  "buffers" : [
    {
      "uri" : "LV_Navarra_Object_GardenDeco01_SM_NWCNIK.bin",
      "byteLength" : 82700
    }
  ],
  "bufferViews" : [
    {
      "buffer" : 0,
      "byteOffset" : 0,
      "byteLength" : 6876
    },
    {
      "buffer" : 0,
      "byteOffset" : 6876,
      "byteLength" : 16248
    },
    {
      "buffer" : 0,
      "byteOffset" : 23124,
      "byteLength" : 16248
    },
    {
      "buffer" : 0,
      "byteOffset" : 39372,
      "byteLength" : 21664
    },
    {
      "buffer" : 0,
      "byteOffset" : 61036,
      "byteLength" : 10832
    },
    {
      "buffer" : 0,
      "byteOffset" : 71868,
      "byteLength" : 10832
    }
  ],
  "accessors" : [
    {
      "bufferView" : 0,
      "componentType" : 5123,
      "count" : 3438,
      "type" : "SCALAR"
    },
    {
      "bufferView" : 1,
      "min" : [ -0.506781, -0.0169995, -0.00934472 ],
      "max" : [ 0.506894, 0.597142, 0.00926722 ],
      "componentType" : 5126,
      "count" : 1354,
      "type" : "VEC3"
    },
    {
      "bufferView" : 2,
      "componentType" : 5126,
      "count" : 1354,
      "type" : "VEC3"
    },
    {
      "bufferView" : 3,
      "componentType" : 5126,
      "count" : 1354,
      "type" : "VEC4"
    },
    {
      "bufferView" : 4,
      "componentType" : 5126,
      "count" : 1354,
      "type" : "VEC2"
    },
    {
      "bufferView" : 5,
      "componentType" : 5126,
      "count" : 1354,
      "type" : "VEC2"
    }
  ]
}
