{
  "asset" : {
    "generator" : "UE Viewer (umodel) build 1585",
    "version" : "2.0"
  },
  "scene" : 0,
  "scenes" : [
    {
      "nodes" : [ 0 ]
    }
  ],
  "nodes" : [
    {
      "name" : "LV_Navarra_Object_GardenDeco01_SM_NWCNIK_Lod1",
      "mesh" : 0
    }
  ],
  "materials" : [
    {
      "name" : "LV_Navarra_Object_CityHallFurniture01A_MI_NWCNIK",
      "pbrMetallicRoughness" : {
        "baseColorFactor" : [ 0.3, 0.3, 0.3, 1.0 ],
        "metallicFactor" : 0.1,
        "roughnessFactor" : 0.5
      }
    }
  ],
  "meshes" : [
    {
      "primitives" : [
        {
          "attributes" : {
            "POSITION" : 1,
            "NORMAL" : 2,
            "TANGENT" : 3,
            "TEXCOORD_0" : 4,
            "TEXCOORD_1" : 5
          },
          "indices" : 0,
          "material" : 0
        }
      ],
      "name" : "LV_Navarra_Object_GardenDeco01_SM_NWCNIK_Lod1"
    }
  ],
  "buffers" : [
    {
      "uri" : "LV_Navarra_Object_GardenDeco01_SM_NWCNIK_Lod1.bin",
      "byteLength" : 23488
    }
  ],
  "bufferViews" : [
    {
      "buffer" : 0,
      "byteOffset" : 0,
      "byteLength" : 1368
    },
    {
      "buffer" : 0,
      "byteOffset" : 1368,
      "byteLength" : 4740
    },
    {
      "buffer" : 0,
      "byteOffset" : 6108,
      "byteLength" : 4740
    },
    {
      "buffer" : 0,
      "byteOffset" : 10848,
      "byteLength" : 6320
    },
    {
      "buffer" : 0,
      "byteOffset" : 17168,
      "byteLength" : 3160
    },
    {
      "buffer" : 0,
      "byteOffset" : 20328,
      "byteLength" : 3160
    }
  ],
  "accessors" : [
    {
      "bufferView" : 0,
      "componentType" : 5123,
      "count" : 684,
      "type" : "SCALAR"
    },
    {
      "bufferView" : 1,
      "min" : [ -0.506781, -0.0169995, -0.00934472 ],
      "max" : [ 0.506894, 0.593466, 0.00926722 ],
      "componentType" : 5126,
      "count" : 395,
      "type" : "VEC3"
    },
    {
      "bufferView" : 2,
      "componentType" : 5126,
      "count" : 395,
      "type" : "VEC3"
    },
    {
      "bufferView" : 3,
      "componentType" : 5126,
      "count" : 395,
      "type" : "VEC4"
    },
    {
      "bufferView" : 4,
      "componentType" : 5126,
      "count" : 395,
      "type" : "VEC2"
    },
    {
      "bufferView" : 5,
      "componentType" : 5126,
      "count" : 395,
      "type" : "VEC2"
    }
  ]
}
