{
  "asset" : {
    "generator" : "UE Viewer (umodel) build 1585",
    "version" : "2.0"
  },
  "scene" : 0,
  "scenes" : [
    {
      "nodes" : [ 0 ]
    }
  ],
  "nodes" : [
    {
      "name" : "LV_GrassLand_MartaCity_Shop01_SM_KMS",
      "mesh" : 0
    }
  ],
  "materials" : [
    {
      "name" : "LV_GrassLand_MartaCity_PrivateHouse01_MI_KMS",
      "pbrMetallicRoughness" : {
        "baseColorFactor" : [ 0.3, 0.3, 0.3, 1.0 ],
        "metallicFactor" : 0.1,
        "roughnessFactor" : 0.5
      }
    },
    {
      "name" : "LV_DeadForest_LavenTown_Inn07_MI_KMS",
      "pbrMetallicRoughness" : {
        "baseColorFactor" : [ 0.9, 0.3, 0.3, 1.0 ],
        "metallicFactor" : 0.1,
        "roughnessFactor" : 0.5
      }
    }
  ],
  "meshes" : [
    {
      "primitives" : [
        {
          "attributes" : {
            "POSITION" : 1,
            "NORMAL" : 2,
            "TANGENT" : 3,
            "TEXCOORD_0" : 4,
            "TEXCOORD_1" : 5
          },
          "indices" : 0,
          "material" : 0
        },
        {
          "attributes" : {
            "POSITION" : 7,
            "NORMAL" : 8,
            "TANGENT" : 9,
            "TEXCOORD_0" : 10,
            "TEXCOORD_1" : 11
          },
          "indices" : 6,
          "material" : 1
        }
      ],
      "name" : "LV_GrassLand_MartaCity_Shop01_SM_KMS"
    }
  ],
  "buffers" : [
    {
      "uri" : "LV_GrassLand_MartaCity_Shop01_SM_KMS.bin",
      "byteLength" : 4284
    }
  ],
  "bufferViews" : [
    {
      "buffer" : 0,
      "byteOffset" : 0,
      "byteLength" : 240
    },
    {
      "buffer" : 0,
      "byteOffset" : 240,
      "byteLength" : 816
    },
    {
      "buffer" : 0,
      "byteOffset" : 1056,
      "byteLength" : 816
    },
    {
      "buffer" : 0,
      "byteOffset" : 1872,
      "byteLength" : 1088
    },
    {
      "buffer" : 0,
      "byteOffset" : 2960,
      "byteLength" : 544
    },
    {
      "buffer" : 0,
      "byteOffset" : 3504,
      "byteLength" : 544
    },
    {
      "buffer" : 0,
      "byteOffset" : 4048,
      "byteLength" : 12
    },
    {
      "buffer" : 0,
      "byteOffset" : 4060,
      "byteLength" : 48
    },
    {
      "buffer" : 0,
      "byteOffset" : 4108,
      "byteLength" : 48
    },
    {
      "buffer" : 0,
      "byteOffset" : 4156,
      "byteLength" : 64
    },
    {
      "buffer" : 0,
      "byteOffset" : 4220,
      "byteLength" : 32
    },
    {
      "buffer" : 0,
      "byteOffset" : 4252,
      "byteLength" : 32
    }
  ],
  "accessors" : [
    {
      "bufferView" : 0,
      "componentType" : 5123,
      "count" : 120,
      "type" : "SCALAR"
    },
    {
      "bufferView" : 1,
      "min" : [ -0.956689, -0.294425, -1.1544 ],
      "max" : [ 0.937566, 2.02932, 0.846467 ],
      "componentType" : 5126,
      "count" : 68,
      "type" : "VEC3"
    },
    {
      "bufferView" : 2,
      "componentType" : 5126,
      "count" : 68,
      "type" : "VEC3"
    },
    {
      "bufferView" : 3,
      "componentType" : 5126,
      "count" : 68,
      "type" : "VEC4"
    },
    {
      "bufferView" : 4,
      "componentType" : 5126,
      "count" : 68,
      "type" : "VEC2"
    },
    {
      "bufferView" : 5,
      "componentType" : 5126,
      "count" : 68,
      "type" : "VEC2"
    },
    {
      "bufferView" : 6,
      "componentType" : 5123,
      "count" : 6,
      "type" : "SCALAR"
    },
    {
      "bufferView" : 7,
      "min" : [ -0.956689, 1.31338, 0.388359 ],
      "max" : [ 0.937566, 2.02932, 0.846467 ],
      "componentType" : 5126,
      "count" : 4,
      "type" : "VEC3"
    },
    {
      "bufferView" : 8,
      "componentType" : 5126,
      "count" : 4,
      "type" : "VEC3"
    },
    {
      "bufferView" : 9,
      "componentType" : 5126,
      "count" : 4,
      "type" : "VEC4"
    },
    {
      "bufferView" : 10,
      "componentType" : 5126,
      "count" : 4,
      "type" : "VEC2"
    },
    {
      "bufferView" : 11,
      "componentType" : 5126,
      "count" : 4,
      "type" : "VEC2"
    }
  ]
}
