{
  "asset" : {
    "generator" : "UE Viewer (umodel) build 1585",
    "version" : "2.0"
  },
  "scene" : 0,
  "scenes" : [
    {
      "nodes" : [ 0 ]
    }
  ],
  "nodes" : [
    {
      "name" : "fx_AuraPlane_001_SM_KKJ",
      "mesh" : 0
    }
  ],
  "materials" : [
    {
      "name" : "WorldGridMaterial",
      "pbrMetallicRoughness" : {
        "baseColorFactor" : [ 0.3, 0.3, 0.3, 1.0 ],
        "metallicFactor" : 0.1,
        "roughnessFactor" : 0.5
      }
    }
  ],
  "meshes" : [
    {
      "primitives" : [
        {
          "attributes" : {
            "POSITION" : 1,
            "NORMAL" : 2,
            "TANGENT" : 3,
            "TEXCOORD_0" : 4,
            "TEXCOORD_1" : 5
          },
          "indices" : 0,
          "material" : 0
        }
      ],
      "name" : "fx_AuraPlane_001_SM_KKJ"
    }
  ],
  "buffers" : [
    {
      "uri" : "fx_AuraPlane_001_SM_KKJ.bin",
      "byteLength" : 13864
    }
  ],
  "bufferViews" : [
    {
      "buffer" : 0,
      "byteOffset" : 0,
      "byteLength" : 2160
    },
    {
      "buffer" : 0,
      "byteOffset" : 2160,
      "byteLength" : 2508
    },
    {
      "buffer" : 0,
      "byteOffset" : 4668,
      "byteLength" : 2508
    },
    {
      "buffer" : 0,
      "byteOffset" : 7176,
      "byteLength" : 3344
    },
    {
      "buffer" : 0,
      "byteOffset" : 10520,
      "byteLength" : 1672
    },
    {
      "buffer" : 0,
      "byteOffset" : 12192,
      "byteLength" : 1672
    }
  ],
  "accessors" : [
    {
      "bufferView" : 0,
      "componentType" : 5123,
      "count" : 1080,
      "type" : "SCALAR"
    },
    {
      "bufferView" : 1,
      "min" : [ -0.163802, -0.287109, -0.291538 ],
      "max" : [ 0.000454, 0.287109, 0.291538 ],
      "componentType" : 5126,
      "count" : 209,
      "type" : "VEC3"
    },
    {
      "bufferView" : 2,
      "componentType" : 5126,
      "count" : 209,
      "type" : "VEC3"
    },
    {
      "bufferView" : 3,
      "componentType" : 5126,
      "count" : 209,
      "type" : "VEC4"
    },
    {
      "bufferView" : 4,
      "componentType" : 5126,
      "count" : 209,
      "type" : "VEC2"
    },
    {
      "bufferView" : 5,
      "componentType" : 5126,
      "count" : 209,
      "type" : "VEC2"
    }
  ]
}
