{
  "asset" : {
    "generator" : "UE Viewer (umodel) build 1585",
    "version" : "2.0"
  },
  "scene" : 0,
  "scenes" : [
    {
      "nodes" : [ 0 ]
    }
  ],
  "nodes" : [
    {
      "name" : "FX_Con_001_SM_Pys",
      "mesh" : 0
    }
  ],
  "materials" : [
    {
      "name" : "WorldGridMaterial",
      "pbrMetallicRoughness" : {
        "baseColorFactor" : [ 0.3, 0.3, 0.3, 1.0 ],
        "metallicFactor" : 0.1,
        "roughnessFactor" : 0.5
      }
    }
  ],
  "meshes" : [
    {
      "primitives" : [
        {
          "attributes" : {
            "POSITION" : 1,
            "NORMAL" : 2,
            "TANGENT" : 3,
            "TEXCOORD_0" : 4,
            "TEXCOORD_1" : 5
          },
          "indices" : 0,
          "material" : 0
        }
      ],
      "name" : "FX_Con_001_SM_Pys"
    }
  ],
  "buffers" : [
    {
      "uri" : "FX_Con_001_SM_Pys.bin",
      "byteLength" : 11304
    }
  ],
  "bufferViews" : [
    {
      "buffer" : 0,
      "byteOffset" : 0,
      "byteLength" : 1728
    },
    {
      "buffer" : 0,
      "byteOffset" : 1728,
      "byteLength" : 2052
    },
    {
      "buffer" : 0,
      "byteOffset" : 3780,
      "byteLength" : 2052
    },
    {
      "buffer" : 0,
      "byteOffset" : 5832,
      "byteLength" : 2736
    },
    {
      "buffer" : 0,
      "byteOffset" : 8568,
      "byteLength" : 1368
    },
    {
      "buffer" : 0,
      "byteOffset" : 9936,
      "byteLength" : 1368
    }
  ],
  "accessors" : [
    {
      "bufferView" : 0,
      "componentType" : 5123,
      "count" : 864,
      "type" : "SCALAR"
    },
    {
      "bufferView" : 1,
      "min" : [ 0, -0.23025, -0.226752 ],
      "max" : [ 0.6, 0.23025, 0.226752 ],
      "componentType" : 5126,
      "count" : 171,
      "type" : "VEC3"
    },
    {
      "bufferView" : 2,
      "componentType" : 5126,
      "count" : 171,
      "type" : "VEC3"
    },
    {
      "bufferView" : 3,
      "componentType" : 5126,
      "count" : 171,
      "type" : "VEC4"
    },
    {
      "bufferView" : 4,
      "componentType" : 5126,
      "count" : 171,
      "type" : "VEC2"
    },
    {
      "bufferView" : 5,
      "componentType" : 5126,
      "count" : 171,
      "type" : "VEC2"
    }
  ]
}
