{
  "asset" : {
    "generator" : "UE Viewer (umodel) build 1585",
    "version" : "2.0"
  },
  "scene" : 0,
  "scenes" : [
    {
      "nodes" : [ 0 ]
    }
  ],
  "nodes" : [
    {
      "name" : "LV_Terny_Rosso_BridgeDeco02_SM_EYE_Lod2",
      "mesh" : 0
    }
  ],
  "materials" : [
    {
      "name" : "LV_Terny_Rosso_Border01_MI_EYE",
      "pbrMetallicRoughness" : {
        "baseColorFactor" : [ 0.3, 0.3, 0.3, 1.0 ],
        "metallicFactor" : 0.1,
        "roughnessFactor" : 0.5
      }
    },
    {
      "name" : "LV_Terny_Roof02_MI_EYE",
      "pbrMetallicRoughness" : {
        "baseColorFactor" : [ 0.9, 0.3, 0.3, 1.0 ],
        "metallicFactor" : 0.1,
        "roughnessFactor" : 0.5
      }
    },
    {
      "name" : "LV_Terny_Rosso_Wall03_MI_EYE",
      "pbrMetallicRoughness" : {
        "baseColorFactor" : [ 0.3, 0.9, 0.3, 1.0 ],
        "metallicFactor" : 0.1,
        "roughnessFactor" : 0.5
      }
    },
    {
      "name" : "LV_Terny_Rosso_Wall01_MI_EYE",
      "pbrMetallicRoughness" : {
        "baseColorFactor" : [ 0.3, 0.3, 0.9, 1.0 ],
        "metallicFactor" : 0.1,
        "roughnessFactor" : 0.5
      }
    }
  ],
  "meshes" : [
    {
      "primitives" : [
        {
          "attributes" : {
            "POSITION" : 1,
            "NORMAL" : 2,
            "TANGENT" : 3,
            "TEXCOORD_0" : 4,
            "TEXCOORD_1" : 5
          },
          "indices" : 0,
          "material" : 0
        },
        {
          "attributes" : {
            "POSITION" : 7,
            "NORMAL" : 8,
            "TANGENT" : 9,
            "TEXCOORD_0" : 10,
            "TEXCOORD_1" : 11
          },
          "indices" : 6,
          "material" : 1
        },
        {
          "attributes" : {
            "POSITION" : 13,
            "NORMAL" : 14,
            "TANGENT" : 15,
            "TEXCOORD_0" : 16,
            "TEXCOORD_1" : 17
          },
          "indices" : 12,
          "material" : 2
        },
        {
          "attributes" : {
            "POSITION" : 19,
            "NORMAL" : 20,
            "TANGENT" : 21,
            "TEXCOORD_0" : 22,
            "TEXCOORD_1" : 23
          },
          "indices" : 18,
          "material" : 3
        }
      ],
      "name" : "LV_Terny_Rosso_BridgeDeco02_SM_EYE_Lod2"
    }
  ],
  "buffers" : [
    {
      "uri" : "LV_Terny_Rosso_BridgeDeco02_SM_EYE_Lod2.bin",
      "byteLength" : 25932
    }
  ],
  "bufferViews" : [
    {
      "buffer" : 0,
      "byteOffset" : 0,
      "byteLength" : 288
    },
    {
      "buffer" : 0,
      "byteOffset" : 288,
      "byteLength" : 1068
    },
    {
      "buffer" : 0,
      "byteOffset" : 1356,
      "byteLength" : 1068
    },
    {
      "buffer" : 0,
      "byteOffset" : 2424,
      "byteLength" : 1424
    },
    {
      "buffer" : 0,
      "byteOffset" : 3848,
      "byteLength" : 712
    },
    {
      "buffer" : 0,
      "byteOffset" : 4560,
      "byteLength" : 712
    },
    {
      "buffer" : 0,
      "byteOffset" : 5272,
      "byteLength" : 348
    },
    {
      "buffer" : 0,
      "byteOffset" : 5620,
      "byteLength" : 1752
    },
    {
      "buffer" : 0,
      "byteOffset" : 7372,
      "byteLength" : 1752
    },
    {
      "buffer" : 0,
      "byteOffset" : 9124,
      "byteLength" : 2336
    },
    {
      "buffer" : 0,
      "byteOffset" : 11460,
      "byteLength" : 1168
    },
    {
      "buffer" : 0,
      "byteOffset" : 12628,
      "byteLength" : 1168
    },
    {
      "buffer" : 0,
      "byteOffset" : 13796,
      "byteLength" : 420
    },
    {
      "buffer" : 0,
      "byteOffset" : 14216,
      "byteLength" : 1752
    },
    {
      "buffer" : 0,
      "byteOffset" : 15968,
      "byteLength" : 1752
    },
    {
      "buffer" : 0,
      "byteOffset" : 17720,
      "byteLength" : 2336
    },
    {
      "buffer" : 0,
      "byteOffset" : 20056,
      "byteLength" : 1168
    },
    {
      "buffer" : 0,
      "byteOffset" : 21224,
      "byteLength" : 1168
    },
    {
      "buffer" : 0,
      "byteOffset" : 22392,
      "byteLength" : 180
    },
    {
      "buffer" : 0,
      "byteOffset" : 22572,
      "byteLength" : 720
    },
    {
      "buffer" : 0,
      "byteOffset" : 23292,
      "byteLength" : 720
    },
    {
      "buffer" : 0,
      "byteOffset" : 24012,
      "byteLength" : 960
    },
    {
      "buffer" : 0,
      "byteOffset" : 24972,
      "byteLength" : 480
    },
    {
      "buffer" : 0,
      "byteOffset" : 25452,
      "byteLength" : 480
    }
  ],
  "accessors" : [
    {
      "bufferView" : 0,
      "componentType" : 5123,
      "count" : 144,
      "type" : "SCALAR"
    },
    {
      "bufferView" : 1,
      "min" : [ -2.4106, 1.21341, 2.46837e-05 ],
      "max" : [ 2.40723, 2.34626, 1.48285 ],
      "componentType" : 5126,
      "count" : 89,
      "type" : "VEC3"
    },
    {
      "bufferView" : 2,
      "componentType" : 5126,
      "count" : 89,
      "type" : "VEC3"
    },
    {
      "bufferView" : 3,
      "componentType" : 5126,
      "count" : 89,
      "type" : "VEC4"
    },
    {
      "bufferView" : 4,
      "componentType" : 5126,
      "count" : 89,
      "type" : "VEC2"
    },
    {
      "bufferView" : 5,
      "componentType" : 5126,
      "count" : 89,
      "type" : "VEC2"
    },
    {
      "bufferView" : 6,
      "componentType" : 5123,
      "count" : 174,
      "type" : "SCALAR"
    },
    {
      "bufferView" : 7,
      "min" : [ -2.34723, 1.3293, 0.528518 ],
      "max" : [ 2.34829, 2.06987, 1.48547 ],
      "componentType" : 5126,
      "count" : 146,
      "type" : "VEC3"
    },
    {
      "bufferView" : 8,
      "componentType" : 5126,
      "count" : 146,
      "type" : "VEC3"
    },
    {
      "bufferView" : 9,
      "componentType" : 5126,
      "count" : 146,
      "type" : "VEC4"
    },
    {
      "bufferView" : 10,
      "componentType" : 5126,
      "count" : 146,
      "type" : "VEC2"
    },
    {
      "bufferView" : 11,
      "componentType" : 5126,
      "count" : 146,
      "type" : "VEC2"
    },
    {
      "bufferView" : 12,
      "componentType" : 5123,
      "count" : 210,
      "type" : "SCALAR"
    },
    {
      "bufferView" : 13,
      "min" : [ -2.40236, -0.245324, 1.15926 ],
      "max" : [ 2.40179, 1.55481, 1.27527 ],
      "componentType" : 5126,
      "count" : 146,
      "type" : "VEC3"
    },
    {
      "bufferView" : 14,
      "componentType" : 5126,
      "count" : 146,
      "type" : "VEC3"
    },
    {
      "bufferView" : 15,
      "componentType" : 5126,
      "count" : 146,
      "type" : "VEC4"
    },
    {
      "bufferView" : 16,
      "componentType" : 5126,
      "count" : 146,
      "type" : "VEC2"
    },
    {
      "bufferView" : 17,
      "componentType" : 5126,
      "count" : 146,
      "type" : "VEC2"
    },
    {
      "bufferView" : 18,
      "componentType" : 5123,
      "count" : 90,
      "type" : "SCALAR"
    },
    {
      "bufferView" : 19,
      "min" : [ -2.40092, -0.268556, -1.1259e-07 ],
      "max" : [ 2.4, 0.0449635, 1.27527 ],
      "componentType" : 5126,
      "count" : 60,
      "type" : "VEC3"
    },
    {
      "bufferView" : 20,
      "componentType" : 5126,
      "count" : 60,
      "type" : "VEC3"
    },
    {
      "bufferView" : 21,
      "componentType" : 5126,
      "count" : 60,
      "type" : "VEC4"
    },
    {
      "bufferView" : 22,
      "componentType" : 5126,
      "count" : 60,
      "type" : "VEC2"
    },
    {
      "bufferView" : 23,
      "componentType" : 5126,
      "count" : 60,
      "type" : "VEC2"
    }
  ]
}
