{
  "asset" : {
    "generator" : "UE Viewer (umodel) build 1585",
    "version" : "2.0"
  },
  "scene" : 0,
  "scenes" : [
    {
      "nodes" : [ 0 ]
    }
  ],
  "nodes" : [
    {
      "name" : "LV_Terny_Rosso_BridgeDeco02_SM_EYE_Lod1",
      "mesh" : 0
    }
  ],
  "materials" : [
    {
      "name" : "LV_Terny_Rosso_Border01_MI_EYE",
      "pbrMetallicRoughness" : {
        "baseColorFactor" : [ 0.3, 0.3, 0.3, 1.0 ],
        "metallicFactor" : 0.1,
        "roughnessFactor" : 0.5
      }
    },
    {
      "name" : "LV_Terny_Roof02_MI_EYE",
      "pbrMetallicRoughness" : {
        "baseColorFactor" : [ 0.9, 0.3, 0.3, 1.0 ],
        "metallicFactor" : 0.1,
        "roughnessFactor" : 0.5
      }
    },
    {
      "name" : "LV_Terny_Rosso_Wall03_MI_EYE",
      "pbrMetallicRoughness" : {
        "baseColorFactor" : [ 0.3, 0.9, 0.3, 1.0 ],
        "metallicFactor" : 0.1,
        "roughnessFactor" : 0.5
      }
    },
    {
      "name" : "LV_Terny_Rosso_Wall01_MI_EYE",
      "pbrMetallicRoughness" : {
        "baseColorFactor" : [ 0.3, 0.3, 0.9, 1.0 ],
        "metallicFactor" : 0.1,
        "roughnessFactor" : 0.5
      }
    }
  ],
  "meshes" : [
    {
      "primitives" : [
        {
          "attributes" : {
            "POSITION" : 1,
            "NORMAL" : 2,
            "TANGENT" : 3,
            "TEXCOORD_0" : 4,
            "TEXCOORD_1" : 5
          },
          "indices" : 0,
          "material" : 0
        },
        {
          "attributes" : {
            "POSITION" : 7,
            "NORMAL" : 8,
            "TANGENT" : 9,
            "TEXCOORD_0" : 10,
            "TEXCOORD_1" : 11
          },
          "indices" : 6,
          "material" : 1
        },
        {
          "attributes" : {
            "POSITION" : 13,
            "NORMAL" : 14,
            "TANGENT" : 15,
            "TEXCOORD_0" : 16,
            "TEXCOORD_1" : 17
          },
          "indices" : 12,
          "material" : 2
        },
        {
          "attributes" : {
            "POSITION" : 19,
            "NORMAL" : 20,
            "TANGENT" : 21,
            "TEXCOORD_0" : 22,
            "TEXCOORD_1" : 23
          },
          "indices" : 18,
          "material" : 3
        }
      ],
      "name" : "LV_Terny_Rosso_BridgeDeco02_SM_EYE_Lod1"
    }
  ],
  "buffers" : [
    {
      "uri" : "LV_Terny_Rosso_BridgeDeco02_SM_EYE_Lod1.bin",
      "byteLength" : 86880
    }
  ],
  "bufferViews" : [
    {
      "buffer" : 0,
      "byteOffset" : 0,
      "byteLength" : 1640
    },
    {
      "buffer" : 0,
      "byteOffset" : 1640,
      "byteLength" : 5220
    },
    {
      "buffer" : 0,
      "byteOffset" : 6860,
      "byteLength" : 5220
    },
    {
      "buffer" : 0,
      "byteOffset" : 12080,
      "byteLength" : 6960
    },
    {
      "buffer" : 0,
      "byteOffset" : 19040,
      "byteLength" : 3480
    },
    {
      "buffer" : 0,
      "byteOffset" : 22520,
      "byteLength" : 3480
    },
    {
      "buffer" : 0,
      "byteOffset" : 26000,
      "byteLength" : 1512
    },
    {
      "buffer" : 0,
      "byteOffset" : 27512,
      "byteLength" : 6048
    },
    {
      "buffer" : 0,
      "byteOffset" : 33560,
      "byteLength" : 6048
    },
    {
      "buffer" : 0,
      "byteOffset" : 39608,
      "byteLength" : 8064
    },
    {
      "buffer" : 0,
      "byteOffset" : 47672,
      "byteLength" : 4032
    },
    {
      "buffer" : 0,
      "byteOffset" : 51704,
      "byteLength" : 4032
    },
    {
      "buffer" : 0,
      "byteOffset" : 55736,
      "byteLength" : 1560
    },
    {
      "buffer" : 0,
      "byteOffset" : 57296,
      "byteLength" : 5352
    },
    {
      "buffer" : 0,
      "byteOffset" : 62648,
      "byteLength" : 5352
    },
    {
      "buffer" : 0,
      "byteOffset" : 68000,
      "byteLength" : 7136
    },
    {
      "buffer" : 0,
      "byteOffset" : 75136,
      "byteLength" : 3568
    },
    {
      "buffer" : 0,
      "byteOffset" : 78704,
      "byteLength" : 3568
    },
    {
      "buffer" : 0,
      "byteOffset" : 82272,
      "byteLength" : 240
    },
    {
      "buffer" : 0,
      "byteOffset" : 82512,
      "byteLength" : 936
    },
    {
      "buffer" : 0,
      "byteOffset" : 83448,
      "byteLength" : 936
    },
    {
      "buffer" : 0,
      "byteOffset" : 84384,
      "byteLength" : 1248
    },
    {
      "buffer" : 0,
      "byteOffset" : 85632,
      "byteLength" : 624
    },
    {
      "buffer" : 0,
      "byteOffset" : 86256,
      "byteLength" : 624
    }
  ],
  "accessors" : [
    {
      "bufferView" : 0,
      "componentType" : 5123,
      "count" : 819,
      "type" : "SCALAR"
    },
    {
      "bufferView" : 1,
      "min" : [ -2.4015, 1.16211, 1.32596e-05 ],
      "max" : [ 2.40185, 2.32083, 1.47295 ],
      "componentType" : 5126,
      "count" : 435,
      "type" : "VEC3"
    },
    {
      "bufferView" : 2,
      "componentType" : 5126,
      "count" : 435,
      "type" : "VEC3"
    },
    {
      "bufferView" : 3,
      "componentType" : 5126,
      "count" : 435,
      "type" : "VEC4"
    },
    {
      "bufferView" : 4,
      "componentType" : 5126,
      "count" : 435,
      "type" : "VEC2"
    },
    {
      "bufferView" : 5,
      "componentType" : 5126,
      "count" : 435,
      "type" : "VEC2"
    },
    {
      "bufferView" : 6,
      "componentType" : 5123,
      "count" : 756,
      "type" : "SCALAR"
    },
    {
      "bufferView" : 7,
      "min" : [ -2.40034, 1.3143, 0.53987 ],
      "max" : [ 2.40185, 2.07395, 1.47587 ],
      "componentType" : 5126,
      "count" : 504,
      "type" : "VEC3"
    },
    {
      "bufferView" : 8,
      "componentType" : 5126,
      "count" : 504,
      "type" : "VEC3"
    },
    {
      "bufferView" : 9,
      "componentType" : 5126,
      "count" : 504,
      "type" : "VEC4"
    },
    {
      "bufferView" : 10,
      "componentType" : 5126,
      "count" : 504,
      "type" : "VEC2"
    },
    {
      "bufferView" : 11,
      "componentType" : 5126,
      "count" : 504,
      "type" : "VEC2"
    },
    {
      "bufferView" : 12,
      "componentType" : 5123,
      "count" : 780,
      "type" : "SCALAR"
    },
    {
      "bufferView" : 13,
      "min" : [ -2.40009, -0.269676, 1.156 ],
      "max" : [ 2.40009, 1.43066, 1.28024 ],
      "componentType" : 5126,
      "count" : 446,
      "type" : "VEC3"
    },
    {
      "bufferView" : 14,
      "componentType" : 5126,
      "count" : 446,
      "type" : "VEC3"
    },
    {
      "bufferView" : 15,
      "componentType" : 5126,
      "count" : 446,
      "type" : "VEC4"
    },
    {
      "bufferView" : 16,
      "componentType" : 5126,
      "count" : 446,
      "type" : "VEC2"
    },
    {
      "bufferView" : 17,
      "componentType" : 5126,
      "count" : 446,
      "type" : "VEC2"
    },
    {
      "bufferView" : 18,
      "componentType" : 5123,
      "count" : 120,
      "type" : "SCALAR"
    },
    {
      "bufferView" : 19,
      "min" : [ -2.39999, -0.269676, -1.1259e-07 ],
      "max" : [ 2.4, -5.12869e-08, 1.2269 ],
      "componentType" : 5126,
      "count" : 78,
      "type" : "VEC3"
    },
    {
      "bufferView" : 20,
      "componentType" : 5126,
      "count" : 78,
      "type" : "VEC3"
    },
    {
      "bufferView" : 21,
      "componentType" : 5126,
      "count" : 78,
      "type" : "VEC4"
    },
    {
      "bufferView" : 22,
      "componentType" : 5126,
      "count" : 78,
      "type" : "VEC2"
    },
    {
      "bufferView" : 23,
      "componentType" : 5126,
      "count" : 78,
      "type" : "VEC2"
    }
  ]
}
