{
  "asset" : {
    "generator" : "UE Viewer (umodel) build 1585",
    "version" : "2.0"
  },
  "scene" : 0,
  "scenes" : [
    {
      "nodes" : [ 0 ]
    }
  ],
  "nodes" : [
    {
      "name" : "MOB_130012_Deadbody_StaticMesh",
      "mesh" : 0
    }
  ],
  "materials" : [
    {
      "name" : "MOB_130012_Deadbody_MI",
      "pbrMetallicRoughness" : {
        "baseColorFactor" : [ 0.3, 0.3, 0.3, 1.0 ],
        "metallicFactor" : 0.1,
        "roughnessFactor" : 0.5
      }
    }
  ],
  "meshes" : [
    {
      "primitives" : [
        {
          "attributes" : {
            "POSITION" : 1,
            "NORMAL" : 2,
            "TANGENT" : 3,
            "TEXCOORD_0" : 4,
            "TEXCOORD_1" : 5,
            "TEXCOORD_2" : 6
          },
          "indices" : 0,
          "material" : 0
        }
      ],
      "name" : "MOB_130012_Deadbody_StaticMesh"
    }
  ],
  "buffers" : [
    {
      "uri" : "MOB_130012_Deadbody_StaticMesh.bin",
      "byteLength" : 938884
    }
  ],
  "bufferViews" : [
    {
      "buffer" : 0,
      "byteOffset" : 0,
      "byteLength" : 28484
    },
    {
      "buffer" : 0,
      "byteOffset" : 28484,
      "byteLength" : 170700
    },
    {
      "buffer" : 0,
      "byteOffset" : 199184,
      "byteLength" : 170700
    },
    {
      "buffer" : 0,
      "byteOffset" : 369884,
      "byteLength" : 227600
    },
    {
      "buffer" : 0,
      "byteOffset" : 597484,
      "byteLength" : 113800
    },
    {
      "buffer" : 0,
      "byteOffset" : 711284,
      "byteLength" : 113800
    },
    {
      "buffer" : 0,
      "byteOffset" : 825084,
      "byteLength" : 113800
    }
  ],
  "accessors" : [
    {
      "bufferView" : 0,
      "componentType" : 5123,
      "count" : 14241,
      "type" : "SCALAR"
    },
    {
      "bufferView" : 1,
      "min" : [ -0.167184, -0.0224165, -0.130083 ],
      "max" : [ 0.269255, 0.083176, 0.250425 ],
      "componentType" : 5126,
      "count" : 14225,
      "type" : "VEC3"
    },
    {
      "bufferView" : 2,
      "componentType" : 5126,
      "count" : 14225,
      "type" : "VEC3"
    },
    {
      "bufferView" : 3,
      "componentType" : 5126,
      "count" : 14225,
      "type" : "VEC4"
    },
    {
      "bufferView" : 4,
      "componentType" : 5126,
      "count" : 14225,
      "type" : "VEC2"
    },
    {
      "bufferView" : 5,
      "componentType" : 5126,
      "count" : 14225,
      "type" : "VEC2"
    },
    {
      "bufferView" : 6,
      "componentType" : 5126,
      "count" : 14225,
      "type" : "VEC2"
    }
  ]
}
