{
  "asset" : {
    "generator" : "UE Viewer (umodel) build 1585",
    "version" : "2.0"
  },
  "scene" : 0,
  "scenes" : [
    {
      "nodes" : [ 0 ]
    }
  ],
  "nodes" : [
    {
      "name" : "AN_NPC_MOB_GoatA_A01_SK_ERC",
      "mesh" : 0,
      "skin" : 0,
      "children" : [ 1 ]
    },
    {
      "name" : "Root",
      "children" : [ 2 ],
      "translation" : [ 0, 0, 0 ],
      "rotation" : [ -0, -0, -0, 1 ]
    },
    {
      "name" : "Bip01",
      "children" : [ 3 ],
      "translation" : [ -0.0967217, 0.196315, -1.22141e-09 ],
      "rotation" : [ -2.00972e-14, 2.00972e-14, 0.707106, -0.707107 ]
    },
    {
      "name" : "Bip01-Pelvis",
      "children" : [ 4, 33 ],
      "translation" : [ -7.10543e-17, 3.55271e-17, 2.03288e-22 ],
      "rotation" : [ 0.499999, 0.499999, -0.5, -0.500001 ]
    },
    {
      "name" : "Bip01-Spine",
      "children" : [ 5, 23, 28 ],
      "translation" : [ 0.031931, 2.70326e-08, -0.00425793 ],
      "rotation" : [ 2.05862e-06, -0.000398137, -6.93685e-07, -1 ]
    },
    {
      "name" : "Bip01-Spine1",
      "children" : [ 6 ],
      "translation" : [ 0.0569956, -9.3968e-11, 3.38828e-05 ],
      "rotation" : [ -0, -0, 2.06795e-25, -1 ]
    },
    {
      "name" : "Bip01-Neck",
      "children" : [ 7, 11, 17 ],
      "translation" : [ 0.0645551, -2.3372e-08, 0.0159503 ],
      "rotation" : [ -1.14793e-13, 0.438371, 1.21587e-06, -0.898794 ]
    },
    {
      "name" : "Bip01-Neck1",
      "children" : [ 8 ],
      "translation" : [ 0.0387713, -5.47947e-11, 1.97646e-05 ],
      "rotation" : [ 2.13562e-13, 0.052336, 1.45159e-07, -0.99863 ]
    },
    {
      "name" : "Bip01-Head",
      "children" : [ 9, 10 ],
      "translation" : [ 0.024942, -4.42849e-15, -2.64749e-09 ],
      "rotation" : [ -5.01521e-13, -0.173255, -4.80543e-07, -0.984877 ]
    },
    {
      "name" : "Bip01-HeadNub",
      "translation" : [ 0.0538945, 4.53986e-07, -3.65996e-08 ],
      "rotation" : [ 1.06981e-07, 9.84138e-10, -9.63522e-07, -1 ]
    },
    {
      "name" : "BN_Mouth_01",
      "translation" : [ 0.0183223, 1.14441e-07, -0.00857351 ],
      "rotation" : [ -0.844454, -7.18069e-07, 0.535629, 6.48394e-07 ]
    },
    {
      "name" : "Bip01-L-Clavicle",
      "children" : [ 12 ],
      "translation" : [ -0.00848709, -0.0278911, 0.0132399 ],
      "rotation" : [ -0.635666, -0.635667, 0.309721, 0.309723 ]
    },
    {
      "name" : "Bip01-L-UpperArm",
      "children" : [ 13, 16 ],
      "translation" : [ 0.0627206, 2.74161e-09, 1.1435e-08 ],
      "rotation" : [ 0.452412, 0.518874, 0.540581, -0.483596 ]
    },
    {
      "name" : "Bip01-L-Forearm",
      "children" : [ 14 ],
      "translation" : [ 0.0612598, 3.98448e-10, -7.25629e-12 ],
      "rotation" : [ 3.04932e-08, 0.00149513, 6.12222e-09, -0.999999 ]
    },
    {
      "name" : "Bip01-L-Hand",
      "children" : [ 15 ],
      "translation" : [ 0.0647125, -8.7742e-10, 5.12516e-10 ],
      "rotation" : [ 0.701555, 0.0861795, 0.0123064, -0.707278 ]
    },
    {
      "name" : "Bip01-L-Finger0",
      "translation" : [ 0.0519975, 6.92971e-11, -1.96101e-10 ],
      "rotation" : [ 0.00039759, 2.08352e-05, 0.0523359, -0.998629 ]
    },
    {
      "name" : "BN_-UpperArm_L_01",
      "translation" : [ 0.0197035, 0.00782558, -0.0102691 ],
      "rotation" : [ 0.0661066, -0.12663, -0.0669406, -0.987478 ]
    },
    {
      "name" : "Bip01-R-Clavicle",
      "children" : [ 18 ],
      "translation" : [ -0.00848709, 0.027891, 0.0132401 ],
      "rotation" : [ -0.635667, 0.635666, 0.309723, -0.309721 ]
    },
    {
      "name" : "Bip01-R-UpperArm",
      "children" : [ 19, 22 ],
      "translation" : [ 0.0627206, -2.74161e-09, -1.1435e-08 ],
      "rotation" : [ 0.452412, -0.518874, 0.540581, 0.483596 ]
    },
    {
      "name" : "Bip01-R-Forearm",
      "children" : [ 20 ],
      "translation" : [ 0.0612598, 1.11009e-09, 1.64499e-10 ],
      "rotation" : [ -5.20522e-08, 0.00149513, -5.92994e-09, -0.999999 ]
    },
    {
      "name" : "Bip01-R-Hand",
      "children" : [ 21 ],
      "translation" : [ 0.0647125, -1.65022e-10, 7.06107e-10 ],
      "rotation" : [ -0.701555, 0.0861795, -0.0123064, -0.707278 ]
    },
    {
      "name" : "Bip01-R-Finger0",
      "translation" : [ 0.0519975, 7.65848e-11, 2.26923e-10 ],
      "rotation" : [ -0.000397601, 2.08364e-05, -0.0523359, -0.998629 ]
    },
    {
      "name" : "BN_-UpperArm_R_01",
      "translation" : [ 0.0197034, -0.00782553, -0.0102691 ],
      "rotation" : [ -0.987478, 0.0669418, 0.126629, 0.066107 ]
    },
    {
      "name" : "Bip01-L-Thigh",
      "children" : [ 24 ],
      "translation" : [ -0.0319344, 0.0252669, 0.00423257 ],
      "rotation" : [ -0.773456, -0.113006, 0.621658, -0.0503777 ]
    },
    {
      "name" : "Bip01-L-Calf",
      "children" : [ 25 ],
      "translation" : [ 0.0630265, -3.3763e-09, 6.28277e-09 ],
      "rotation" : [ 3.90616e-08, 0.441947, -7.54007e-09, -0.897041 ]
    },
    {
      "name" : "Bip01-L-HorseLink",
      "children" : [ 26 ],
      "translation" : [ 0.0649454, 5.36454e-09, -8.47804e-09 ],
      "rotation" : [ 2.4143e-08, -0.446867, -5.95849e-09, -0.8946 ]
    },
    {
      "name" : "Bip01-L-Foot",
      "children" : [ 27 ],
      "translation" : [ 0.0559266, -1.84935e-10, 6.04158e-09 ],
      "rotation" : [ 0.00655399, 0.0909784, -0.0307734, -0.995356 ]
    },
    {
      "name" : "Bip01-L-Toe0",
      "translation" : [ 0.0307439, -3.33363e-10, -0.0201478 ],
      "rotation" : [ -1.5582e-08, -0.707107, 1.53125e-08, -0.707107 ]
    },
    {
      "name" : "Bip01-R-Thigh",
      "children" : [ 29 ],
      "translation" : [ -0.0319344, -0.025267, 0.00423243 ],
      "rotation" : [ -0.773455, 0.113005, 0.621658, 0.0503798 ]
    },
    {
      "name" : "Bip01-R-Calf",
      "children" : [ 30 ],
      "translation" : [ 0.0630264, 1.43814e-09, 7.88727e-09 ],
      "rotation" : [ -8.20708e-08, 0.441947, 2.02089e-08, -0.897041 ]
    },
    {
      "name" : "Bip01-R-HorseLink",
      "children" : [ 31 ],
      "translation" : [ 0.0649454, -4.81331e-10, -7.25927e-09 ],
      "rotation" : [ 2.77676e-08, -0.446867, -8.69442e-09, -0.8946 ]
    },
    {
      "name" : "Bip01-R-Foot",
      "children" : [ 32 ],
      "translation" : [ 0.0559266, 3.0738e-09, 3.74472e-09 ],
      "rotation" : [ -0.0065541, 0.0909784, 0.0307734, -0.995356 ]
    },
    {
      "name" : "Bip01-R-Toe0",
      "translation" : [ 0.0307439, -2.33283e-09, -0.0201478 ],
      "rotation" : [ 1.25548e-08, -0.707107, -1.86745e-08, -0.707107 ]
    },
    {
      "name" : "BN_Tail_01",
      "children" : [ 34 ],
      "translation" : [ -0.0318336, -1.90735e-08, 0.0112885 ],
      "rotation" : [ -0.47249, 9.21702e-07, 0.881336, -1.21465e-06 ]
    },
    {
      "name" : "BN_Tail_02",
      "translation" : [ 0.0436328, -1.52103e-09, -2.70398e-08 ],
      "rotation" : [ -2.47985e-08, -0.258322, 1.7093e-08, -0.966059 ]
    }
  ],
  "skins" : [
    {
      "inverseBindMatrices" : 0,
      "skeleton" : 1,
      "joints" : [
        1,2,3,4,5,6,7,8,9,10,11,12,13,14,15,16,17,18,19,20,21,22,23,24,25,26,27,28,29,30,31,32,
        33,34
      ]
    }
  ],
  "materials" : [
    {
      "name" : "CH_NPC_MOB_GoatA_A01_MI_ERC",
      "pbrMetallicRoughness" : {
        "baseColorFactor" : [ 0.3, 0.3, 0.3, 1.0 ],
        "metallicFactor" : 0.1,
        "roughnessFactor" : 0.5
      }
    }
  ],
  "meshes" : [
    {
      "primitives" : [
        {
          "attributes" : {
            "POSITION" : 2,
            "NORMAL" : 3,
            "TANGENT" : 4,
            "JOINTS_0" : 5,
            "WEIGHTS_0" : 6,
            "TEXCOORD_0" : 7
          },
          "indices" : 1,
          "material" : 0
        }
      ],
      "name" : "AN_NPC_MOB_GoatA_A01_SK_ERC"
    }
  ],
  "animations" : [
  ],
  "buffers" : [
    {
      "uri" : "AN_NPC_MOB_GoatA_A01_SK_ERC.bin",
      "byteLength" : 221292
    }
  ],
  "bufferViews" : [
    {
      "buffer" : 0,
      "byteOffset" : 0,
      "byteLength" : 2176
    },
    {
      "buffer" : 0,
      "byteOffset" : 2176,
      "byteLength" : 26876
    },
    {
      "buffer" : 0,
      "byteOffset" : 29052,
      "byteLength" : 38448
    },
    {
      "buffer" : 0,
      "byteOffset" : 67500,
      "byteLength" : 38448
    },
    {
      "buffer" : 0,
      "byteOffset" : 105948,
      "byteLength" : 51264
    },
    {
      "buffer" : 0,
      "byteOffset" : 157212,
      "byteLength" : 25632
    },
    {
      "buffer" : 0,
      "byteOffset" : 182844,
      "byteLength" : 12816
    },
    {
      "buffer" : 0,
      "byteOffset" : 195660,
      "byteLength" : 25632
    }
  ],
  "accessors" : [
    {
      "bufferView" : 0,
      "componentType" : 5126,
      "count" : 34,
      "type" : "MAT4"
    },
    {
      "bufferView" : 1,
      "componentType" : 5123,
      "count" : 13437,
      "type" : "SCALAR"
    },
    {
      "bufferView" : 2,
      "min" : [ -0.164037, 0.000421825, -0.0618595 ],
      "max" : [ 0.164037, 0.329313, 0.0618595 ],
      "componentType" : 5126,
      "count" : 3204,
      "type" : "VEC3"
    },
    {
      "bufferView" : 3,
      "componentType" : 5126,
      "count" : 3204,
      "type" : "VEC3"
    },
    {
      "bufferView" : 4,
      "componentType" : 5126,
      "count" : 3204,
      "type" : "VEC4"
    },
    {
      "bufferView" : 5,
      "componentType" : 5123,
      "count" : 3204,
      "type" : "VEC4"
    },
    {
      "bufferView" : 6,
      "normalized" : true,
      "componentType" : 5121,
      "count" : 3204,
      "type" : "VEC4"
    },
    {
      "bufferView" : 7,
      "componentType" : 5126,
      "count" : 3204,
      "type" : "VEC2"
    }
  ]
}
