{
  "asset" : {
    "generator" : "UE Viewer (umodel) build 1585",
    "version" : "2.0"
  },
  "scene" : 0,
  "scenes" : [
    {
      "nodes" : [ 0 ]
    }
  ],
  "nodes" : [
    {
      "name" : "FX_Portal_001_SM_PHS",
      "mesh" : 0
    }
  ],
  "materials" : [
    {
      "name" : "WorldGridMaterial",
      "pbrMetallicRoughness" : {
        "baseColorFactor" : [ 0.3, 0.3, 0.3, 1.0 ],
        "metallicFactor" : 0.1,
        "roughnessFactor" : 0.5
      }
    }
  ],
  "meshes" : [
    {
      "primitives" : [
        {
          "attributes" : {
            "POSITION" : 1,
            "NORMAL" : 2,
            "TANGENT" : 3,
            "TEXCOORD_0" : 4,
            "TEXCOORD_1" : 5
          },
          "indices" : 0,
          "material" : 0
        }
      ],
      "name" : "FX_Portal_001_SM_PHS"
    }
  ],
  "buffers" : [
    {
      "uri" : "FX_Portal_001_SM_PHS.bin",
      "byteLength" : 14992
    }
  ],
  "bufferViews" : [
    {
      "buffer" : 0,
      "byteOffset" : 0,
      "byteLength" : 2112
    },
    {
      "buffer" : 0,
      "byteOffset" : 2112,
      "byteLength" : 2760
    },
    {
      "buffer" : 0,
      "byteOffset" : 4872,
      "byteLength" : 2760
    },
    {
      "buffer" : 0,
      "byteOffset" : 7632,
      "byteLength" : 3680
    },
    {
      "buffer" : 0,
      "byteOffset" : 11312,
      "byteLength" : 1840
    },
    {
      "buffer" : 0,
      "byteOffset" : 13152,
      "byteLength" : 1840
    }
  ],
  "accessors" : [
    {
      "bufferView" : 0,
      "componentType" : 5123,
      "count" : 1056,
      "type" : "SCALAR"
    },
    {
      "bufferView" : 1,
      "min" : [ 0.022293, -0.435548, -0.435548 ],
      "max" : [ 0.036823, 0.435548, 0.435548 ],
      "componentType" : 5126,
      "count" : 230,
      "type" : "VEC3"
    },
    {
      "bufferView" : 2,
      "componentType" : 5126,
      "count" : 230,
      "type" : "VEC3"
    },
    {
      "bufferView" : 3,
      "componentType" : 5126,
      "count" : 230,
      "type" : "VEC4"
    },
    {
      "bufferView" : 4,
      "componentType" : 5126,
      "count" : 230,
      "type" : "VEC2"
    },
    {
      "bufferView" : 5,
      "componentType" : 5126,
      "count" : 230,
      "type" : "VEC2"
    }
  ]
}
