{
  "asset" : {
    "generator" : "UE Viewer (umodel) build 1585",
    "version" : "2.0"
  },
  "scene" : 0,
  "scenes" : [
    {
      "nodes" : [ 0 ]
    }
  ],
  "nodes" : [
    {
      "name" : "DLV_Shakara_Object_ScuSpear01_SM_YHY",
      "mesh" : 0
    }
  ],
  "materials" : [
    {
      "name" : "DLV_Shakara_Object_ScuSpear01_MI_YHY",
      "pbrMetallicRoughness" : {
        "baseColorFactor" : [ 0.3, 0.3, 0.3, 1.0 ],
        "metallicFactor" : 0.1,
        "roughnessFactor" : 0.5
      }
    },
    {
      "name" : "DLV_Shakara_Object_ScuSpear02_MI_YHY",
      "pbrMetallicRoughness" : {
        "baseColorFactor" : [ 0.9, 0.3, 0.3, 1.0 ],
        "metallicFactor" : 0.1,
        "roughnessFactor" : 0.5
      }
    }
  ],
  "meshes" : [
    {
      "primitives" : [
        {
          "attributes" : {
            "POSITION" : 1,
            "NORMAL" : 2,
            "TANGENT" : 3,
            "TEXCOORD_0" : 4,
            "TEXCOORD_1" : 5
          },
          "indices" : 0,
          "material" : 0
        },
        {
          "attributes" : {
            "POSITION" : 7,
            "NORMAL" : 8,
            "TANGENT" : 9,
            "TEXCOORD_0" : 10,
            "TEXCOORD_1" : 11
          },
          "indices" : 6,
          "material" : 1
        }
      ],
      "name" : "DLV_Shakara_Object_ScuSpear01_SM_YHY"
    }
  ],
  "buffers" : [
    {
      "uri" : "DLV_Shakara_Object_ScuSpear01_SM_YHY.bin",
      "byteLength" : 130280
    }
  ],
  "bufferViews" : [
    {
      "buffer" : 0,
      "byteOffset" : 0,
      "byteLength" : 6108
    },
    {
      "buffer" : 0,
      "byteOffset" : 6108,
      "byteLength" : 10392
    },
    {
      "buffer" : 0,
      "byteOffset" : 16500,
      "byteLength" : 10392
    },
    {
      "buffer" : 0,
      "byteOffset" : 26892,
      "byteLength" : 13856
    },
    {
      "buffer" : 0,
      "byteOffset" : 40748,
      "byteLength" : 6928
    },
    {
      "buffer" : 0,
      "byteOffset" : 47676,
      "byteLength" : 6928
    },
    {
      "buffer" : 0,
      "byteOffset" : 54604,
      "byteLength" : 7356
    },
    {
      "buffer" : 0,
      "byteOffset" : 61960,
      "byteLength" : 14640
    },
    {
      "buffer" : 0,
      "byteOffset" : 76600,
      "byteLength" : 14640
    },
    {
      "buffer" : 0,
      "byteOffset" : 91240,
      "byteLength" : 19520
    },
    {
      "buffer" : 0,
      "byteOffset" : 110760,
      "byteLength" : 9760
    },
    {
      "buffer" : 0,
      "byteOffset" : 120520,
      "byteLength" : 9760
    }
  ],
  "accessors" : [
    {
      "bufferView" : 0,
      "componentType" : 5123,
      "count" : 3054,
      "type" : "SCALAR"
    },
    {
      "bufferView" : 1,
      "min" : [ -0.0341346, -0.00159444, -0.0201064 ],
      "max" : [ 0.036304, 0.459822, 0.0438275 ],
      "componentType" : 5126,
      "count" : 866,
      "type" : "VEC3"
    },
    {
      "bufferView" : 2,
      "componentType" : 5126,
      "count" : 866,
      "type" : "VEC3"
    },
    {
      "bufferView" : 3,
      "componentType" : 5126,
      "count" : 866,
      "type" : "VEC4"
    },
    {
      "bufferView" : 4,
      "componentType" : 5126,
      "count" : 866,
      "type" : "VEC2"
    },
    {
      "bufferView" : 5,
      "componentType" : 5126,
      "count" : 866,
      "type" : "VEC2"
    },
    {
      "bufferView" : 6,
      "componentType" : 5123,
      "count" : 3678,
      "type" : "SCALAR"
    },
    {
      "bufferView" : 7,
      "min" : [ -0.036304, 0.333832, -0.0438275 ],
      "max" : [ 0.0343867, 0.474361, 0.0418775 ],
      "componentType" : 5126,
      "count" : 1220,
      "type" : "VEC3"
    },
    {
      "bufferView" : 8,
      "componentType" : 5126,
      "count" : 1220,
      "type" : "VEC3"
    },
    {
      "bufferView" : 9,
      "componentType" : 5126,
      "count" : 1220,
      "type" : "VEC4"
    },
    {
      "bufferView" : 10,
      "componentType" : 5126,
      "count" : 1220,
      "type" : "VEC2"
    },
    {
      "bufferView" : 11,
      "componentType" : 5126,
      "count" : 1220,
      "type" : "VEC2"
    }
  ]
}
